<svg id="svg" viewBox="0 0 600 600" xmlns="http://www.w3.org/2000/svg" xmlns:xlink="http://www.w3.org/1999/xlink" version="1.1" width="1200" height="1200" preserveAspectRatio="xMidYMid meet" buffered-rendering="static" style="background: rgb(255, 255, 255);"><g><path d="M 87.75 46.98430672092253 C 86.22181908071195 46.998010817863815 86 48.07740696345808 86 55.5 C 86 62.388888888888886 86.2843137254902 64 87.5 64 C 88.63333333333334 64 89 62.77777777777778 89 59 C 89 56.25 89.3375 53.98186654182275 89.75 53.959703426272775 C 90.1625 53.9375403107228 91.85 55.75567376890005 93.5 58 C 95.15 60.24432623109995 96.8375 62.0624596892772 97.25 62.040296573727225 C 97.6625 62.01813345817725 99.2375 60.20960813526073 100.75 58.02135141169052 C 102.2625 55.8330946881203 103.8375 54.03309468812029 104.25 54.02135141169052 C 104.6625 54.009608135260734 105 56.25 105 59 C 105 63.333333333333336 105.26666666666667 64 107 64 L 109 64 L 109 55.5 L 109 47 L 107 47 C 105.73333333333333 47 103.71666666666667 48.833333333333336 101.5 52 C 99.575 54.75 97.775 57 97.5 57 C 97.225 57 95.3125 54.74293802441514 93.25 51.98430672092253 C 91.1875 49.22567541742993 88.7125 46.97567541742993 87.75 46.98430672092253 Z " class="odd" fill="#000000"></path><path d="M 119 47 L 117 47 L 117 55.5 L 117 64 L 119 64 L 121 64 L 121 55.5 L 121 47 L 119 47 Z " class="odd" fill="#000000"></path><path d="M 139.5 47.197950837468824 C 135.1 47.03182379807668 131.15 47.25682379807668 130.72222222222223 47.697950837468824 C 130.29444444444445 48.13907787686097 129.95694444444445 50.1875 129.97222222222223 52.25 C 129.99019068573523 54.67574257425743 130.52970297029702 56.17656765676568 131.5 56.5 C 132.325 56.775 135.7 57 139 57 C 144.33333333333334 57 145 57.22222222222222 145 59 C 145 60.77777777777778 144.33333333333334 61 139 61 C 135.66666666666666 61 133 60.55555555555556 133 60 C 133 59.45 132.325 59 131.5 59 C 130.675 59 129.775 59.45 129.5 60 L 129 61 L 129.5 62.5 C 129.89506172839506 63.68518518518518 131.88888888888889 64 139 64 L 148 64 L 148.60840802987462 61.25 L 149.21681605974922 58.5 L 148.60840802987462 56.25 L 148 54 L 141 54 L 134 54 L 134 52 C 134 50.24242424242424 134.66666666666666 50 139.5 50 C 142.525 50 145 50.45 145 51 C 145 51.55 145.675 52 146.5 52 C 147.46296296296296 52 147.9104938271605 51.19444444444444 147.75 49.75 L 147.5 47.5 L 139.5 47.197950837468824 Z " class="odd" fill="#000000"></path><path d="M 166.2389404659703 47.25 L 158 47 L 156.75 49.5 L 155.5 52 L 156.75 54.5 L 158 57 L 164.5 57 C 170.33333333333334 57 171 57.205128205128204 171 59 C 171 60.75757575757576 170.33333333333334 61 165.5 61 C 162.475 61 159.775 60.55 159.5 60 C 159.225 59.45 158.325 59 157.5 59 C 156.53703703703704 59 156.0895061728395 59.80555555555556 156.25 61.25 L 156.5 63.5 L 165.5 63.5 L 174.5 63.5 L 174.5 59 L 174.5 54.5 L 167.50919355210817 54 C 161.84591381851092 53.59494803812619 160.4691672656811 53.167681866558326 160.25919355210817 51.75 C 160.03910670031578 50.264037145199005 160.8298310277683 50 165.5 50 C 168.92368119036092 50 171.09437812771085 50.44623428076993 171.25 51.18203839065604 C 171.39724473193107 51.87823409451352 172.21928687648258 52.0837446306514 173.25 51.68203839065604 C 174.2125 51.306917275795215 174.88252320968664 50.2125 174.7389404659703 49.25 C 174.51818164032045 47.770153855621125 173.2060057701607 47.461406592054125 166.2389404659703 47.25 Z " class="odd" fill="#000000"></path><path d="M 195.25 47.01569789815805 C 194.0125 47.007064054171124 192.99288773392954 47.3375 192.9841949642879 47.75 C 192.97550219464623 48.1625 194.78261446071667 50.3 197 52.5 C 200.29249171055642 55.76667673929418 201.02871252134324 57.18749055691171 201.0158050357121 60.25 C 201.00278757975735 63.338601678570704 201.35274577142894 64 203 64 C 204.64241939867557 64 205.00203657929805 63.32953637251667 205.01139088244997 60.25 C 205.02089359707065 57.12160498899526 205.80825991646464 55.71054628644883 209.76139088244997 51.73740723091353 L 214.5 46.974814461827066 L 212 46.966153517790694 C 210.53556215741156 46.96108015211093 208.25732541110614 48.21215140209594 206.5 49.986424297847314 L 203.5 53.015356021940306 L 200.5 50.023375909128205 C 198.85 48.377786847081545 196.4875 47.02433174214497 195.25 47.01569789815805 Z " class="odd" fill="#000000"></path><path d="M 228.75 47.25 C 221.70235622203919 47.06929118518049 218.85238218699948 47.34645592590246 218.46740046148722 48.25 C 218.17447071530518 48.9375 218.0619707153052 52.65 218.21740046148722 56.5 L 218.5 63.5 L 228.5 63.5 L 238.5 63.5 L 238.5 55.5 L 238.5 47.5 L 228.75 47.25 Z " class="odd" fill="#000000"></path><path d="M 249.5 47 L 247 47 L 247.01531277451704 54.25 C 247.02373480050144 58.2375 247.36123480050145 62.06820420374434 247.76531277451704 62.762676008320746 C 248.28995699553911 63.66435994647991 251.07305010156566 63.95025440220943 257.5 63.762676008320746 L 266.5 63.5 L 266.75 55.25 L 267 47 L 265 47 L 263 47 L 263 54 L 263 61 L 257.5 61 L 252 61 L 252 54 L 252 47 L 249.5 47 Z " class="odd" fill="#000000"></path><path d="M 290.5 47 L 288 47 L 288.25152714622766 55.25 L 288.5030542924553 63.5 L 297.25152714622766 63.75 C 304.4723919051364 63.95634643553232 306 63.73807861319392 306 62.5 C 306 61.32051282051282 304.6111111111111 61 299.5 61 L 293 61 L 293 54 L 293 47 L 290.5 47 Z " class="odd" fill="#000000"></path><path d="M 320 47 L 311 47 L 311.25 55.25 L 311.5 63.5 L 320.25 63.75 C 327.47222222222223 63.95634920634921 329 63.73809523809524 329 62.5 C 329 61.32051282051282 327.6111111111111 61 322.5 61 C 316.6666666666667 61 316 60.794871794871796 316 59 C 316 57.40841883031692 316.75 56.948947646210385 319.6727003963947 56.75 C 321.6926856144118 56.6125 323.4926856144118 55.9375 323.6727003963947 55.25 C 323.8942734827474 54.40378339939912 322.70789312192284 54 320 54 C 316.6666666666667 54 316 53.666666666666664 316 52 C 316 50.205128205128204 316.6666666666667 50 322.5 50 C 327.6111111111111 50 329 49.67948717948718 329 48.5 C 329 47.27777777777778 327.3333333333333 47 320 47 Z " class="odd" fill="#000000"></path><path d="M 347.25 46.983333333333334 C 341.50188446401177 46.97238454183621 338.06544148711447 47.40122517955218 337.23333333333335 48.233333333333334 C 336.48403141033117 48.982635256335485 335.97972853671183 51.95067510156875 335.9986461078504 55.5 C 336.0162348005015 58.8 336.36123480050145 62.06758938696753 336.76531277451704 62.761309748816736 C 337.29291096383565 63.66708940111457 340.17780053242126 63.94896314136944 347 63.761309748816736 L 356.5 63.5 L 356.75 58.75 L 357 54 L 351.8286027070925 54.25 C 348.7147953141764 54.40053027337441 346.52646132841335 54.99734863312796 346.3286027070925 55.75 C 346.11185747776244 56.57449575373191 347.19141188955064 57 349.5 57 C 352.3333333333333 57 353 57.38095238095238 353 59 L 353 61 L 346.75 60.75 L 340.5 60.5 L 340.4659448231405 56.5 C 340.4472144758678 54.3 340.55971447586774 51.9375 340.7159448231405 51.25 C 340.9044550699992 50.420450575206615 343.01816276099174 50 347 50 C 350.3333333333333 50 353 50.44444444444444 353 51 C 353 51.55 353.675 52 354.5 52 C 355.325 52 356.225 51.55 356.5 51 L 357 50 L 356.5 48.5 C 356.1069462092334 47.32083862770013 354.12844133841594 46.99643512635889 347.25 46.983333333333334 Z " class="odd" fill="#000000"></path><path d="M 374 47 L 365 47 L 365 55.5 L 365 64 L 374 64 C 381.3333333333333 64 383 63.72222222222222 383 62.5 C 383 61.30952380952381 381.55555555555554 61 376 61 L 369 61 L 369 59 C 369 57.333333333333336 369.6666666666667 57 373 57 C 375.8888888888889 57 377 56.583333333333336 377 55.5 C 377 54.47846928542099 375.8064796279249 53.9202551190965 373.25831665132387 53.75 C 370.57788722275995 53.570907518168774 369.44336693205963 53.00364737281859 369.25831665132387 51.75 C 369.0332709506054 50.22539841415963 369.9015936566385 50 376 50 C 381.55555555555554 50 383 49.69047619047619 383 48.5 C 383 47.27777777777778 381.3333333333333 47 374 47 Z " class="odd" fill="#000000"></path><path d="M 391.75 47.022912746057074 C 390.218791157172 47.002864632127896 390 48.06269990626397 390 55.5 L 390 64 L 392 64 C 393.7295436317747 64 394.0338070460282 63.25 394.25 58.45381889196206 L 394.5 52.90763778392411 L 401 58.43996581891055 C 404.575 61.4827462381531 408.2875 63.97852773677017 409.25 63.98614692694849 C 410.7804982802393 63.99826241522356 411 62.93384878973391 411 55.5 L 411 47 L 409 47 C 407.27546208845 47 406.9655672389438 47.75 406.75 52.44539543877096 L 406.5 57.89079087754192 L 400 52.46830818482803 C 396.425 49.48594270383539 392.7125 47.03551475638846 391.75 47.022912746057074 Z " class="odd" fill="#000000"></path><path d="M 427 47 L 419 47 L 419 55.5 L 419 64 L 427.25 64.02571419609325 C 434.5136709617405 64.0483541305741 435.7742955435365 63.77935530195787 437.79430357050956 61.77571419609325 C 439.4019922902877 60.18105161982162 440.1017052181866 58.30292240389274 440.13237398524063 55.5 C 440.16617660164286 52.41066449925675 439.58692486739403 50.98775121916808 437.5880704147311 49.25 C 435.36789616629704 47.31983920122759 433.8627939511908 47 427 47 Z " class="odd" fill="#000000"></path><path d="M 228.5 50 L 235 50 L 235 55.5 L 235 61 L 228.5 61 L 222 61 L 222 55.5 L 222 50 L 228.5 50 Z " class="even" fill="#ffffff"></path><path d="M 428 50 C 430.2 50 432.9 50.45 434 51 C 435.3333333333333 51.666666666666664 436 53 436 55 C 436 56.65 435.325 58.675 434.5 59.5 C 433.6111111111111 60.388888888888886 431.1666666666667 61 428.5 61 L 424 61 L 424 55.5 L 424 50 L 428 50 Z " class="even" fill="#ffffff"></path><path d="M 223 92.04933210506465 C 222.725 92.07379409294155 219.125 93.17628579677094 215 94.49931366912993 C 210.875 95.82234154148892 204.6875 98.72623464099065 201.25 100.95240944580041 C 197.8125 103.17858425061019 192.924276458618 106.9125 190.38728101915115 109.25 C 187.8502855796843 111.5875 184.29815480305913 115.525 182.49365707109524 118 C 180.68915933913132 120.475 177.39981735532876 126.1 175.18400821820063 130.5 C 172.45970442199427 135.90973340278043 170.51094895942572 141.73783324652447 169.16530585092966 148.5 C 168.07082868605875 154 166.87893746679464 160.975 166.51665869700946 164 C 166.14748866031076 167.0825415512911 166.54849065285012 176.2029529714202 167.42898501233634 184.75 C 168.7354346780877 197.4318378940722 169.54222168502665 201.3051315620289 172.21976586975185 207.75 C 173.99063709811537 212.0125 177.50851442382896 218.65 180.0372710380043 222.5 C 182.56602765217963 226.35 187.25716890849156 232.875 190.4620293853642 237 C 193.82757558790377 241.33181980484312 198.68702595712293 249.569088312251 201.96575566484086 256.5 C 205.08794464168045 263.1 209.61219329064792 271.875 212.0196415514353 276 C 214.42708981222268 280.125 218.09125760031418 285.3 220.1622366360831 287.5 C 222.23321567185204 289.7 223.94393112518426 292.2875 223.96382653237694 293.25 C 223.98765481062372 294.4027644340434 223.23212570091292 295.0072951332681 221.75 295.0213759594152 C 220.5125 295.0331327370935 217.925 294.296584112003 216 293.38460123699184 C 213.14212091154712 292.0306600486689 211.85787908845288 291.93195513776186 209 292.8465916784147 C 207.075 293.46266929620856 203.475 293.964930573511 201 293.962727850198 C 198.525 293.96052512688505 194.475 294.67683832101 192 295.5545349482535 C 189.525 296.432231575497 185.7 298.4436975376997 183.5 300.02445930870385 C 180.21766070183907 302.38291225506646 177.5264330699426 303.1820928876002 168.5 304.4788240550849 C 162.45 305.3479628945902 154.8 306.9376798170944 151.5 308.01152832731646 C 148.2 309.08537683753855 142.4625 311.772084627165 138.75 313.98199008204193 C 135.0375 316.1918955369189 131.1 318 130 318 C 128.86838294646572 318 127.59585785732591 318.97693081477394 127.06920755567819 320.25 C 126.5572717113012 321.4875 125.8822717113012 323.7375 125.56920755567819 325.25 C 125.25359818496763 326.77479664192083 124.33170725922953 328 123.5 328 C 122.675 328 121.325 328.675 120.5 329.5 C 119.675 330.325 118.98745125652545 332.0125 118.97211390338987 333.25 C 118.95677655025429 334.4875 117.89293238892719 336.85 116.6080157671074 338.5 C 115.32309914528761 340.15 112.80054338233168 345.1 111.00233629387198 349.5 C 109.20412920541227 353.9 104.8990847575561 363.575 101.43557085419157 371 C 97.40215622468698 379.6467398311811 94.68347546992104 387.0165052727209 93.87319238844529 391.5 C 92.82655010178965 397.29132809365996 92.04180255492057 399.0180022455743 89.32834212819759 401.5 L 86.04857232757885 404.5 L 86.02428616378943 411.75 C 86.00544105277703 417.3757157789289 85.12476622987509 421.7444802356029 82.09339009079264 431.25 C 79.94475464072859 437.9875 77.50281045471515 446.875 76.66684745520722 451 C 75.83088445569929 455.125 74.8888589148426 461.0875 74.57345736441458 464.25 L 74 470 L 90.75 470.0036555261023 L 107.5 470.00731105220456 L 114.5 467.06797607786086 C 118.35 465.4513418419718 124.425 463.65309622600034 128 463.07187470903546 C 131.575 462.49065319207057 137.5375 462.0117089437792 141.25 462.0075541572769 C 145.2369424996763 462.0030922327293 155.98216611204626 463.63736740759924 167.5 466 C 178.225 468.2 188.2375 470.00750000000096 189.75 470.0166666666688 C 191.96929824561425 470.03011695906827 192.25555555555607 469.7888888888929 191.2333333333355 468.7666666666688 C 190.53666666667002 468.07000000000096 189.97416666667002 467.1625 189.9833333333355 466.75 C 189.99250000000097 466.3375 190.45 466.225 191 466.5 C 191.55 466.775 191.98568848265793 466.4375 191.96819662812874 465.75 C 191.95070477359954 465.0625 191.26806231724737 463.6 190.45121339179053 462.5 C 189.63436446633372 461.4 188.96678523514313 460.95 188.96770398914475 461.5 C 188.96862274314634 462.05 188.5331559480312 461.825 188 461 C 187.4668440519688 460.175 187.02373480050147 458.9375 187.01531277451707 458.25 C 187.00689074853267 457.5625 187.675 457 188.5 457 C 189.325 457 190 456.55 190 456 C 190 455.45 189.325 455 188.5 455 C 187.675 455 186.775 454.1 186.5 453 C 186.20477775732138 451.8191110292856 186.7167221506249 450.39869197436934 187.75 449.53180337186984 L 189.5 448.0636067437396 L 187.75 448.03180337186984 C 186.7875 448.0143115173414 185.55 446.875 185 445.5 C 184.45 444.125 184 441.65 184 440 C 184 437.3333333333333 184.33333333333334 437 187 437 C 189.33333333333334 437 190 436.55555555555554 190 435 C 190 433.4888888888894 190.67222222222296 432.9959259259254 192.75 432.9833333333312 C 194.2625 432.9741666666633 196.06999999999903 433.5366666666633 196.7666666666645 434.2333333333312 C 197.46333333332998 434.92999999999904 198.00579692534853 435.05 197.97214131559463 434.5 C 197.93848570584075 433.95 198.62602211382315 434.175 199.50000000000003 435 C 200.9182826611846 436.33880183238466 201.08426576546987 436.3119354711155 201.0445253510699 434.75 C 201.02003640798145 433.7875 202.78501231138696 431.5375 204.96669402530438 429.75 C 207.1483757392218 427.9625 208.94837573922177 425.7125 208.96669402530438 424.75 C 208.99060524815587 423.4936296228371 208.0457710640495 424.0577777632223 205.6170980008941 426.75 L 202.23419600178815 430.5 L 193.8670980008941 431.7210625840463 C 189.26519410040234 432.3926470052718 185.275 432.73456430847847 185 432.4808788133945 C 184.725 432.22719331831047 184.8375 431.34021515548966 185.25 430.5098162293482 C 185.6625 429.67941730320666 187.4625 428.1016821271966 189.25 427.0037380604369 C 191.0375 425.90579399367715 193.9625 425.0057939936772 195.75 425.0037380604369 C 198.3206143157803 425.00078141069156 199.09496689859935 425.47034393522904 199.45429632625002 427.25 L 199.90859265250003 429.5 L 202.54182903440574 427 C 204.61275890267976 425.0338549526882 204.83606053679006 424.4466145047312 203.58753270815572 424.25 C 202.71438971867008 424.1125 202.225 423.55 202.5 423 C 202.775 422.45 204.575 422 206.5 422 C 208.425 422 211.0125 422.38338889739845 212.25 422.85197532755205 C 213.4875 423.3205617577057 214.8375 424.8955617577057 215.25 426.35197532755205 C 215.91385561811964 428.69585006851736 216.37329232148159 428.93415991621663 219.25 428.4267755858284 C 221.0375 428.11150215803406 231.95 427.4575485969939 243.5 426.97354545018356 C 255.05 426.48954230337324 271.925 425.644672938718 281 425.0960579731718 C 290.075 424.5474430076257 300.65 423.60093385783046 304.5 422.9927043069602 C 308.35 422.38447475608996 317.575 420.53173968620035 325 418.87551526276116 C 332.425 417.2192908393219 339.175 415.3392751814796 340 414.6977026897783 C 340.825 414.05613019807697 343.75 411.5859088413378 346.5 409.2083218970247 C 349.25 406.83073495271157 353.4174147408267 404.12371332138923 355.76092164628153 403.192718271864 L 360.02184329256306 401.5 L 362.76092164628153 404.23203353564963 C 364.26741474082667 405.7346519802569 366.4 406.98352717340714 367.5 407.00731174265013 C 368.6 407.03109631189307 370.3270305891963 407.8266812208508 371.33784575376956 408.7752782070005 L 373.1756915075391 410.5 L 384.33784575376956 409.2557849131714 C 390.4770305891963 408.5714666154156 398.65 408.015374523037 402.5 408.02002470788557 C 407.61151652841005 408.02619860313587 410.7140250888792 408.6124353356363 414 410.1930154643511 C 416.475 411.3835101955586 421.2 415.1176083126176 424.5 418.49101128003787 C 428.41051633856944 422.4885104984244 431.9938249719447 427.5628996926465 434.78955248471857 433.062235610401 C 437.1488063513138 437.7030060246804 439.73096535738983 443.975 440.52768360933203 447 C 441.3244018612742 450.025 441.98160324315086 454.4125 441.98813112461346 456.75 C 441.99465900607606 459.0875 441.2125 462.80501458958514 440.25 465.01114353241144 C 439.2875 467.21727247523773 438.8740586136972 469.3547724752377 439.3312413637715 469.76114353241144 C 439.78842411384574 470.16751458958515 442.4884241138458 470.40506828109386 445.3312413637715 470.28904062465307 C 448.1740586136971 470.1730129682123 450.6286716100166 469.94801296821225 450.78593691114804 469.78904062465307 C 450.9432022122795 469.6300682810939 450.3177835016013 466.8 449.39611755408544 463.5 C 448.00738496317365 458.5276805144419 447.8622003630314 455.5302790139864 448.54847318541994 446 C 449.0039347301698 439.675 449.39808282423036 429.325 449.4243578388878 423 C 449.45063285354524 416.675 448.6964726379216 405.875 447.74844624861305 399 C 446.235640361813 388.0292711373406 446.2036671556778 386.31648746351914 447.4871027452073 385 C 448.29139020764273 384.175 448.96081877914924 382.7125 448.9747217929995 381.75 C 448.98862480684977 380.7875 447.87086467590666 379.4375 446.4908103909037 378.75 C 444.9884119669072 378.00155196594653 443.7225197763798 376.2962752817283 443.3358726265326 374.5 C 442.98071114113156 372.85 442.58976091493577 368.8 442.4670943460975 365.5 C 442.3444277772592 362.2 441.518626955955 356.8 440.63198140986594 353.5 C 439.74533586377686 350.2 438.288639012331 345.25 437.39487729554185 342.5 C 436.5011155787527 339.75 432.78413839402384 332.92510438938916 429.1349279961444 327.33356530975374 C 423.80643547210445 319.16892942002033 421.90929179358227 317.0273412605556 419.5 316.4571894466926 C 417.85 316.06672180164446 414.925 314.4963819931219 413 312.9675454277536 C 410.627426874718 311.0832459223296 406.27878035794856 309.38638105624494 399.5 307.69977404100024 C 394 306.3313363436542 387.25 305.1800598677816 384.5 305.1413818723945 C 380.6998787107883 305.08793420923286 378.94072116804443 304.5225866970929 377.16943597329055 302.78552912220897 C 375.0837856222644 300.7401810599436 374.0329083544592 300.53145552401617 367.16943597329055 300.79932633410033 C 362.95124618798076 300.9639558178555 357.25 301.1862757192155 354.5 301.29337055934474 C 350.274092272228 301.45794252752904 348.5710892733264 300.90923280155715 343.5 297.74915660929094 C 339.02944086556533 294.9633039600082 336.4166460535579 294.0089215865794 333.25 294.00511238404647 C 330.9125 294.0023005728209 327.3125 293.31394337294756 325.25 292.4754297176612 C 323.1875 291.63691606237484 320.4875 290.9619160623749 319.25 290.9754297176612 C 317.25 290.99726996862904 317.1666666666667 291.1666666666667 318.5 292.5 C 319.325 293.325 320.01785762006506 295.2375 320.0396836001446 296.75 C 320.0691930513214 298.7949503180263 319.3641433693477 299.8417317220949 317.2896836001446 300.83290214829987 C 315.75535762006507 301.5659983298648 312.8125 304.1534983298648 310.75 306.58290214829987 C 308.59455942712003 309.12177999468264 307 312.06303961808004 307 313.5 C 307 314.875 307.45 315.775 308 315.5 C 308.55 315.225 309.225 315.675 309.5 316.5 C 309.775 317.325 309.5980556295263 319.2375 309.1067902878362 320.75 C 308.6155249461461 322.2625 305.6572582586958 329.8 302.53286431572434 337.5 C 299.4084703727529 345.2 293.39791474322664 358.12562105262793 289.17607402788815 366.2236023391731 C 284.95423331254966 374.32158362571835 281.3875 380.50908362571835 281.25 379.9736023391731 C 281.1125 379.43812105262793 284.2075230142893 372.1375 288.1278289206428 363.75 C 292.0481348269963 355.3625 296.5092827172267 345.125 298.0414908989326 341 C 299.57369908063845 336.875 301.98678005428235 331.025 303.4038930625858 328 C 304.82100607088927 324.975 305.9995258116546 321.825 306.0228258198422 321 C 306.05919323055525 319.7123131632927 305.8128772529771 319.72868433589537 304.2825947355461 321.1156629128554 C 302.8271122447098 322.4348461427072 298.1876694419693 322.92674903353304 279 323.7962825404205 C 266.075 324.3820087335109 253.7 324.54358496397435 251.5 324.15534083033936 C 249.1149763224535 323.73444471607206 248.0046801007667 323.15684050983333 248.75 322.7247212027742 C 249.4375 322.3261245412484 249.775 321.55 249.5 321 C 249.225 320.45 249.4368398350105 318.5375 249.97075518891222 316.75 C 250.50467054281395 314.9625 251.96717054281393 312.5606787873746 253.22075518891222 311.41261952749926 C 254.6912540628496 310.06590564254964 257.6289839508669 309.0541462030717 261.5 308.5612327735522 L 267.5 307.7972264921059 L 267.14107216997076 305.64861324605295 C 266.87989058112225 304.08512840460344 268.51386097298774 301.77692250734106 273.14107216997076 297.1727954145176 C 276.63848247648684 293.69283289250234 281.075 290.0304057060538 283 289.03406833352085 C 284.925 288.037730960988 290.1 283.55580644617993 294.5 279.0742360783919 C 298.9 274.59266571060385 303.26621223619446 269.4800928970524 304.20269385820995 267.71296315938866 C 305.1391754802254 265.9458334217249 306.60167548022537 262.1375 307.45269385820995 259.25 C 308.3037122361945 256.3625 308.99305304349815 251.8625 308.98456231888474 249.25 C 308.97148061467357 245.22490746576003 309.6608865060428 243.50802136264417 313.5019361061315 238 C 315.9949824137306 234.425 318.91755857757323 228.8 319.9965498035596 225.5 C 321.075541029546 222.2 322.71641579095115 216.125 323.6429381622378 212 C 324.80696018491886 206.81762017587167 325.3336284946449 199.86475964825667 325.347277969109 189.5 C 325.36364136100264 177.07442094524072 324.9883739382339 173.12697549587162 323.1607624530909 166.5 C 321.9473143967885 162.1 318.97495455447233 154.45 316.55551835905504 149.5 C 314.13608216363775 144.55 310.31081504646335 138.025 308.05492476533414 135 C 305.7990344842049 131.975 300.7013122060883 126.21453243532686 296.726653036186 122.198960967393 C 292.75199386628367 118.18338949945915 286.35 112.72845037664615 282.5 110.07687402780854 C 278.65 107.42529767897092 272.575 103.78539372815655 269 101.98819858155437 C 265.425 100.19100343495218 259.6875 97.6584425577652 256.25 96.36028552113883 C 251.72038228930302 94.6496949453225 246.3527895466776 93.72540713526955 236.75 93.00242788173514 C 229.4625 92.45376321668948 223.275 92.02487011718776 223 92.04933210506465 Z " class="odd" fill="#000000"></path><path d="M 227.25 151.99288631137074 C 227.9375 151.9889737826246 235.475 157.1678924630897 244 163.50159449018196 C 252.525 169.83529651727426 261.8625 176.81349767715744 264.75 179.00870817881125 C 267.6375 181.20391868046505 270 183.45 270 184 C 270 184.55 269.4375 185.01472339135148 268.75 185.03271864744775 C 268.0625 185.05071390354402 264.35 185.48696018423774 260.5 186.00215482676717 C 256.65 186.5173494692966 253.1693907485327 187.5151260779451 252.76531277451707 188.21943617931942 C 252.36123480050145 188.92374628069373 252.02373480050147 190.2875 252.01531277451707 191.25 C 252.00689074853267 192.2125 252.675 193 253.5 193 C 254.325 193 257.8125 191.43392280192424 261.25 189.51982844872052 C 264.6875 187.6057340955168 268.625 186.02309163916425 270 186.00284521238154 C 271.375 185.98259878559884 273.2722863451925 186.53617598367458 274.21619187820556 187.23301676366103 C 275.16009741121866 187.92985754364747 277.0725974112187 191.0875 278.46619187820556 194.25 C 280.63253770646406 199.1661135783497 281.7613745588981 200.41821776639313 286.25 202.88378860037244 C 289.1375 204.4698723305773 293.6343424829009 208.1823723305773 296.24298329533525 211.13378860037244 C 298.8516241077696 214.0852048701676 302.45162410776965 219.39979611521625 304.24298329533525 222.94399136714722 C 307.0205285875291 228.43935092705465 307.54772520354527 230.64752848314848 307.8241940627481 237.94399136714722 C 308.11377739105706 245.58656642215857 307.87356894359806 247.0071067224134 305.5741940627481 251.25 C 304.15838732823664 253.8625 303 257.125 303 258.5 C 303 259.93996814024547 302.2579776981718 261.30532463658193 301.25 261.7200836318557 C 300.2875 262.1161296293763 298.7125 263.2411296293763 297.75 264.2200836318557 C 296.7875 265.19903763433507 296 267.125 296 268.5 C 296 270.4294495716833 295.48650461451496 270.9972859362453 293.75 270.988107695569 C 292.5125 270.98156692813194 289.025 272.17128069498733 286 273.6319160663587 L 280.5 276.2876167415794 L 278 274.75927277290054 C 276.625 273.9186835901272 273.925 272.8682453449177 272 272.4249655613238 C 270.075 271.98168577773 268.1625 271.7047267967801 267.75 271.80950115921297 C 267.3375 271.91427552164583 267 270.875 267 269.5 C 267 268.125 266.55 267 266 267 C 265.45 267 264.775 268.125 264.5 269.5 C 264.1666666666667 271.1666666666667 263.5 271.8333333333333 262.5 271.5 C 261.675 271.225 260.775 271.45 260.5 272 C 260.225 272.55 257.975 273 255.5 273 C 251.68253108310742 273 250.81040803247015 273.3835536745804 249.75 275.5288101572659 C 249.0625 276.9196557437622 247.7125 278.0446557437622 246.75 278.0288101572659 C 245.7875 278.01296457076967 245 277.55 245 277 C 245 276.45 244.4375 276.011571388242 243.75 276.02571419609325 C 243.0625 276.0398570039445 241.375 274.9089258351944 240 273.5125338210929 C 237.99013466372705 271.4713993447359 237.74833489628836 270.7311559816033 238.76666666666654 269.7368196249997 C 239.4633333333331 269.0565688312499 240.03333333333305 267.825 240.03333333333305 267 C 240.03333333333305 265.78947368421046 239.7888888888887 265.7444444444444 238.76666666666654 266.7666666666668 C 238.06999999999994 267.4633333333336 236.7125 268.0258333333336 235.75 268.0166666666668 C 234.75613300605585 268.0072012667244 234.00024061013556 267.24386699394415 234.00055686993403 266.25 C 234.00100443562428 264.8434956979221 235.81662455321242 264.13527497415197 243.25055686993403 262.6418434085343 C 248.33775059147032 261.61985728322816 253.5229039952374 260.2698572832282 254.7731199894165 259.6418434085343 C 256.0233359835956 259.0138295338404 257.29284603437293 257.825 257.59425343558837 257 C 258.064982336349 255.71154012289884 256.78678518146796 255.57051337429962 248.53074479217952 256 L 238.91922269201524 256.5 L 237.45961134600762 254.25 C 236.65682510570343 253.0125 236.225 251.55 236.5 251 C 236.775 250.45 237.5625 249.99420988622052 238.25 249.98713308049005 C 238.9375 249.9800562747596 241.75 248.89054884030827 244.5 247.56600544837605 C 247.25 246.24146205644382 248.825 245.15388053839797 248 245.14915763049638 C 247.175 245.14443472259478 245.6 245.49210840034664 244.5 245.92176580327822 C 243.4 246.35142320620983 241.825 246.3526438987383 241 245.92447845334146 C 240.175 245.49631300794465 238.7125 244.88814676464412 237.75 244.57299791267363 C 236.7875 244.25784906070314 236.00689074853267 243.6625 236.01531277451707 243.25 C 236.02373480050147 242.8375 236.36123480050145 241.9022685982232 236.76531277451707 241.17170799605154 C 237.25608805300075 240.2844013224981 239.90676627575897 239.78640992179234 244.74942119185638 239.67170799605154 C 248.81301374409162 239.575458748636 251.9923641053657 239.06054027551883 251.98410092280932 238.5 C 251.9749903569131 237.88197672836537 253.59861254370705 237.76160505774604 256.23467973095296 238.1848717168335 C 258.68444816879 238.578224855645 260.92565428073135 239.61264337606815 261.5 240.61505641659946 C 262.05 241.57497855721232 263.9248919258785 243.96678628463724 265.6664265019523 245.93018469976596 L 268.8328530039045 249.5 L 272.56693852847354 246.5 C 274.6206855669865 244.85 276.54486472295605 242.825 276.84289220840583 242 C 277.2433864454458 240.89135143002227 276.9432167608879 240.69567571501113 275.6923801818846 241.25 C 274.58144085245306 241.7423270232022 271.8527251933516 240.83640147703426 267.75 238.61315321820064 C 264.3125 236.75038748821098 259.025 234.4587445939798 256 233.52061345324245 C 251.2702199492991 232.0537856997215 250.08872802549897 232.00292972639235 247.56318193677774 233.1574602350418 C 245.24691531161844 234.2163205333573 244.5601883403563 234.23587424182224 244.31318193677774 233.25 C 244.14093187154998 232.5625 242.875 232 241.5 232 C 239.88095238095238 232 237.94285714285715 230.76666666666668 236 228.5 C 234.01547721410148 226.18472341645173 232.99435845992164 223.89989968472338 232.9833333333333 221.75 C 232.97416666666663 219.9625 233.44839802861003 218.05 234.0371808043186 217.5 C 234.7061961688769 216.87505228466608 234.89997318262107 213.96839707850387 234.55384747098532 209.75 L 234 203 L 230.25 200.549888444927 C 228.1875 199.20232708963687 225.375 197.18733322015183 224 196.07212429051583 C 222.00955680900938 194.45775336649697 220.02228525387278 194.03993952056808 214.25 194.0222358455888 L 207 194 L 207 192 C 207 190.9 211.275 181.45 216.5 171 C 221.725 160.55 226.5625 151.99679884011684 227.25 151.99288631137074 Z " class="even" fill="#ffffff"></path><path d="M 261.25 197.11600135047522 C 260.2875 197.1798020932366 258.6 197.4532258872939 257.5 197.72360978171372 C 256.4 197.9939936761335 254.91746359201855 198.72929306841965 254.20547464893014 199.35760843123848 C 253.4934857058417 199.98592379405733 252.9309857058417 201.5125 252.95547464893014 202.75 C 252.97996359201855 203.9875 253.675 205.225 254.5 205.5 C 255.325 205.775 257.4625 206.02003640798145 259.25 206.04452535106986 L 262.5 206.08905070213976 L 261 204.5 C 260.175 203.62602211382313 259.8375 202.9309857058417 260.25 202.95547464893014 C 260.6625 202.97996359201855 261.8797880931636 203.5625 262.95508465147475 204.25 C 264.5659652432861 205.27993020698378 265.5342723325574 205.1919022897773 268.45508465147475 203.75 C 271.15405787985816 202.41761186507998 272.5965883786857 202.23863535147427 274.5 203 C 276.46078431372547 203.7843137254902 277.1078431372549 203.6764705882353 277.5 202.5 L 278 201 L 277.5 200 C 277.225 199.45 273.625 199 269.5 199 C 264.8333333333333 199 262.18888888888887 198.62222222222223 262.5 198 C 262.775 197.45 262.2125 197.05220060771384 261.25 197.11600135047522 Z " class="odd" fill="#000000"></path><path d="M 211.25 201.983016763661 C 211.6625 201.99235754364744 212.16902617560282 202.3375 212.3756137235618 202.75 C 212.58220127152077 203.1625 214.4947012715208 203.87465725867125 216.6256137235618 204.3325716859361 C 219.4448726923338 204.93840575235214 220.0914989243266 205.38911271821297 219 205.98755006678078 C 218.175 206.4398737489805 215.3625 207.07771649030923 212.75 207.40497838084468 C 208.80282337479505 207.89943215487025 207.89010360523844 207.70422296718078 207.34978490723358 206.25 C 206.92861455725472 205.11645493058734 207.36893950767424 204.05369253542133 208.59978490723358 203.233016763661 C 209.64490320825513 202.53617598367458 210.8375 201.97367598367458 211.25 201.983016763661 Z " class="even" fill="#ffffff"></path><path d="M 220.75 207.5792280333696 C 221.4375 207.8106526150163 222.5625 207.9875 223.25 207.97222222222223 C 223.9375 207.95694444444445 224.1208397791 208.29444444444445 223.6574217313334 208.72222222222223 C 223.19400368356673 209.15 220.38405198432088 209.725 217.41308462189818 210 C 214.44211725947545 210.275 212.00877748037544 210.1625 212.0056628905648 209.75 C 212.00254830075414 209.3375 213.2375 208.7356380309964 214.75 208.41252895776975 C 216.2625 208.0894198845431 217.95 207.67507249955943 218.5 207.4917569911393 C 219.05 207.30844148271922 220.0625 207.34780345172285 220.75 207.5792280333696 Z " class="even" fill="#ffffff"></path><path d="M 264.5 208.19494871889628 C 262.5979696856924 208.21844131794055 262.23197979046165 208.3955366291836 263.5 208.6788290487927 C 264.6 208.92458354010594 265.95 208.90790924818157 266.5 208.64177506673855 C 267.05 208.3756408852955 266.15 208.17456902876648 264.5 208.19494871889628 Z " class="odd" fill="#000000"></path><path d="M 223.5 211 C 223.775 211 224 212.125 224 213.5 C 224 215.24987190749417 223.02483347974243 216.5909132401331 220.75 217.96937445096586 C 218.9625 219.0525303989971 216.375 219.91700408320762 215 219.89042708254482 C 213.4816809085364 219.86107990618103 213.08900854512183 219.62112008871068 214 219.27933284768764 C 214.825 218.969808019179 217.1875 216.9803343349685 219.25 214.8582802161087 C 221.3125 212.7362260972489 223.225 211 223.5 211 Z " class="even" fill="#ffffff"></path><path d="M 214 215.50685043730982 C 214.275 215.79641603012277 213.9108394564614 216.58833333333334 213.19075434769198 217.26666666666665 C 212.1311359795984 218.26484653587474 212.03580349414224 218.16446468981854 212.69075434769198 216.74018377064317 C 213.13583945646138 215.7722848444969 213.725 215.2172848444969 214 215.50685043730982 Z " class="even" fill="#ffffff"></path><path d="M 224 218.08251116238375 C 224.275 218.01166706010972 224.84301470588235 219.42662037037036 225.26225490196077 221.22685185185185 C 225.68149509803922 223.02708333333334 226.02420208414745 225.85 226.0238259822013 227.5 C 226.0234498802551 229.15 225.2655460822493 232.75 224.33959531996612 235.5 C 223.41364455768297 238.25 221.38343757157475 242.6375 219.82802423972566 245.25 C 218.27261090787655 247.8625 216.6625 250.01910182098055 216.25 250.0424484910679 C 215.8375 250.06579516115522 214.5268435553894 249.27829516115523 213.3374301230876 248.2924484910679 C 212.14801669078574 247.30660182098055 210.0096819516189 244.25 208.58557514716125 241.5 C 207.16146834270359 238.75 205.98903987835652 235.825 205.9801785597233 235 C 205.97131724109008 234.175 204.84715198025694 232.2625 203.48203353564963 230.75 L 201 228 L 202.75 226.14114296086842 C 203.7210364002735 225.10970419063904 206.61432977068623 223.9968990481726 209.25 223.64114296086842 C 211.8625 223.28851433239078 216.1375 221.92254668973936 218.75 220.6056593105319 C 221.3625 219.28877193132445 223.725 218.1533552646578 224 218.08251116238375 Z " class="even" fill="#ffffff"></path><path d="M 250.5 228 C 249.125 228 247.775 228.45 247.5 229 C 247.21428571428572 229.57142857142858 248.5 230 250.5 230 C 252.5 230 253.78571428571428 229.57142857142858 253.5 229 C 253.225 228.45 251.875 228 250.5 228 Z " class="odd" fill="#000000"></path><path d="M 277.5496031746032 238 C 277.2167658730159 237.725 276.9924707602339 238.4 277.05116959064327 239.5 C 277.12550503410995 240.89302584469118 277.3091628886429 241.04476938351837 277.656328320802 240 C 277.93046679197994 239.175 277.8824404761905 238.275 277.5496031746032 238 Z " class="odd" fill="#000000"></path><path d="M 200 241 C 200.4403519721143 242.375 200.80063994929876 244.4 200.80063994929876 245.5 C 200.80063994929876 247.08366637384847 200.6339732826321 246.9795829673106 200 245 C 199.5596480278857 243.625 199.19936005070124 241.6 199.19936005070124 240.5 C 199.19936005070124 238.91633362615153 199.3660267173679 239.0204170326894 200 241 Z " class="even" fill="#ffffff"></path><path d="M 255.5 244.0680619781598 L 250.5 244.17009042899753 L 256 245.54267550654737 C 259.025 246.2975972991998 262.175 246.92001543533365 263 246.92582692017817 C 264.10514805246993 246.93361183067256 263.97353073662657 246.5454424816472 262.5 245.45121339179056 C 261.2982873763184 244.55883369600576 258.50428155920406 244.00675753948659 255.5 244.0680619781598 Z " class="odd" fill="#000000"></path><path d="M 277 270 C 276.45 270 276.225 270.45 276.5 271 C 276.775 271.55 277.225 272 277.5 272 C 277.775 272 278 271.55 278 271 C 278 270.45 277.55 270 277 270 Z " class="odd" fill="#000000"></path><path d="M 312.25 286.95547464893014 C 312.1125 286.9799635920185 311.9799635920185 287.1125 311.95547464893014 287.25 C 311.9309857058417 287.3875 312.71848570584166 288.175 313.70547464893014 289 L 315.5 290.5 L 314 288.70547464893014 C 313.175 287.71848570584166 312.3875 286.9309857058417 312.25 286.95547464893014 Z " class="odd" fill="#000000"></path><path d="M 312.95311302842816 295.5 C 312.3024398929037 294.8403867044909 312.0015969495737 295.8615468179636 312.06928607702025 298.5 L 312.1719054873739 302.5 L 313.0557324387818 299.5 C 313.60517211212203 297.6350206424516 313.56634706243284 296.1216597858495 312.95311302842816 295.5 Z " class="odd" fill="#000000"></path><path d="M 237.05326617212629 326 C 238.28431220255015 327.925 244.3374593454293 338.95 250.5047042674133 350.5 C 256.6719491893973 362.05 263.5927784791902 374.425 265.8843249113976 378 C 268.1758713436049 381.575 270.0435157183829 384.95 270.0346457442374 385.5 C 270.025775770092 386.05 269.11270206735725 385.6 268.0055930714934 384.5 C 266.8984840756296 383.4 261.0181884648725 373.95 254.93826949203307 363.5 C 248.8583505191937 353.05 242.14413823514877 340.9 240.017797749711 336.5 C 237.89145726427327 332.1 235.85096135737334 327.15 235.48336240104447 325.5 L 234.8150006622647 322.5 L 237.05326617212629 326 Z " class="even" fill="#ffffff"></path><path d="M 281 381.4808709245 C 281.275 381.77081704592933 280.5465574863973 383.0187354103198 279.3812388586607 384.2540228453676 C 278.2159202309241 385.48931028041545 276.9784202309241 387.7375 276.6312388586607 389.25 C 276.28405748639733 390.7625 275.55 392 275 392 C 274.45 392 273.53167968346116 390.7625 272.9592881854693 389.25 C 272.3868966874774 387.7375 272.1618966874774 385.9375 272.4592881854693 385.25 C 272.7566796834612 384.5625 274.0125 384.0200364079815 275.25 384.04452535106986 C 276.4875 384.0690142941583 278.175 383.38359592976786 279 382.52137343020223 C 279.825 381.6591509306366 280.725 381.1909248030706 281 381.4808709245 Z " class="even" fill="#ffffff"></path><path d="M 275.75 393.07607792550334 C 276.9875 393.0342350664765 279.35 393.675 281 394.5 C 282.65 395.325 284.6784794126945 397.0125 285.50773202821006 398.25 C 286.3369846437256 399.4875 287.0119846437256 401.7375 287.00773202821006 403.25 C 287.0034794126945 404.7625 286.3843279006728 407.2375 285.631839779273 408.75 C 284.87935165787314 410.2625 282.9668516578731 412.3441768361941 281.381839779273 413.3759485248758 C 279.7694127823112 414.4255662267952 276.7380522450399 415.24704045203987 274.5 415.2408715293908 C 272.3 415.2348074931924 269.0375 414.5031306569983 267.25 413.61492300451505 C 265.4625 412.72671535203176 263.55 411.1 263 410 C 262.45 408.9 262 406.425 262 404.5 C 262 402.21559402121005 262.84351875889325 400.0448904119064 264.42870202108065 398.25 C 265.76448813267496 396.7375 268.351988132675 394.9717350664765 270.17870202108065 394.32607792550334 C 272.00541590948626 393.6804207845302 274.5125 393.1179207845302 275.75 393.07607792550334 Z " class="even" fill="#ffffff"></path><path d="M 275.5 396.0074428951091 C 273.80890631024397 396.06885696318665 273.9247461765854 396.3055710556151 276.25 397.5400376306552 C 277.8314018872799 398.37959662928773 279.2622185748893 400.1685981127201 279.6170650740374 401.75 C 279.9564508647579 403.2625 279.97185827535554 406.075 279.6513037642543 408 L 279.0684773804339 411.5 L 280.60813438916256 408 C 281.50776174947157 405.9549368831949 281.8768378183379 403.4607593691465 281.4959847529498 402 C 281.13749109823203 400.625 280.0917380337065 398.69783236900423 279.17208905400423 397.7174052644539 C 278.2524400743019 396.7369781599036 276.6 395.9674950936984 275.5 396.0074428951091 Z " class="odd" fill="#000000"></path><path d="M 272.5 396.9858833348309 C 271.95 396.944669614497 270.9925749654214 397.4934857058417 270.3723888120476 398.20547464893014 C 269.7522026586738 398.9174635920185 268.9647026586738 400.5125 268.6223888120476 401.75 C 268.2770987828857 402.99825920803175 268.44521812976365 404 269 404 C 269.55 404 270 402.875 270 401.5 C 270 400.125 270.7875 398.5636839086553 271.75 398.03040868590074 C 272.7125 397.49713346314616 273.05 397.0270970551647 272.5 396.9858833348309 Z " class="odd" fill="#000000"></path><path d="M 274 412.23200270095043 C 272.075 412.23200270095043 271.4 412.43779796668133 272.5 412.68932551368573 L 274.5 413.14664832642103 L 276 412.68932551368573 C 276.825 412.43779796668133 275.925 412.23200270095043 274 412.23200270095043 Z " class="odd" fill="#000000"></path><path d="M 212.25 426.97428580390675 C 211.8375 426.9601429960555 210.375 428.09671438429746 209 429.5 C 207.625 430.90328561570254 206.8375 432.0398570039445 207.25 432.02571419609325 C 207.6625 432.011571388242 209.125 431.55 210.5 431 C 211.875 430.45 213 429.325 213 428.5 C 213 427.675 212.6625 426.988428611758 212.25 426.97428580390675 Z " class="odd" fill="#000000"></path><path d="M 193.76493159432792 435 C 193.4723182181024 433.87407404557734 193.20363805044568 433.8117283713145 192.68755064194698 434.75 C 192.30939778887614 435.4375 192.225 436.3375 192.5 436.75 C 192.775 437.1625 193.25982142857143 437.275 193.57738095238096 437 C 193.89494047619047 436.725 193.97933826506662 435.825 193.76493159432792 435 Z " class="odd" fill="#000000"></path><path d="M 208.5 435.9276968711523 C 207.95 435.91848570584165 206.825 436.71848570584166 206 437.70547464893014 L 204.5 439.5 L 206.5 438.0329676596587 C 207.6 437.226099872471 208.725 436.426099872471 209 436.25518988188094 C 209.275 436.08427989129086 209.05 435.936908036463 208.5 435.9276968711523 Z " class="odd" fill="#000000"></path><path d="M 200.25 437.03180337187047 C 199.8375 437.04929522639924 198.6 437.7319376827518 197.5 438.54878660820947 C 196.4 439.36563553366716 196.0625 440.0263240163255 196.75 440.016983236339 C 197.4375 440.0076424563525 198.675 440.225 199.5 440.5 C 200.5 440.8333333333333 201 440.3333333333333 201 439 C 201 437.9 200.6625 437.0143115173417 200.25 437.03180337187047 Z " class="odd" fill="#000000"></path><path d="M 188 440 C 187.45 440 186.775 440.45 186.5 441 C 186.225 441.55 186.45 442 187 442 C 187.55 442 188.225 441.55 188.5 441 C 188.775 440.45 188.55 440 188 440 Z " class="odd" fill="#000000"></path><path d="M 192.5 442 C 191.675 442 191 442.45 191 443 C 191 443.55 191.45 444 192 444 C 192.55 444 193.225 443.55 193.5 443 C 193.775 442.45 193.325 442 192.5 442 Z " class="odd" fill="#000000"></path><path d="M 197 445 C 196.45 445 196 445.675 196 446.5 C 196 447.325 196.45 448 197 448 C 197.55 448 198 447.325 198 446.5 C 198 445.675 197.55 445 197 445 Z " class="odd" fill="#000000"></path><path d="M 193 449 C 192.45 449 191.775 449.45 191.5 450 C 191.225 450.55 191.9 451 193 451 C 194.1 451 194.775 450.55 194.5 450 C 194.225 449.45 193.55 449 193 449 Z " class="odd" fill="#000000"></path><path d="M 197.5 453 C 197.225 453 196.775 453.45 196.5 454 C 196.225 454.55 196.45 455.225 197 455.5 C 197.55 455.775 198 455.325 198 454.5 C 198 453.675 197.775 453 197.5 453 Z " class="odd" fill="#000000"></path><path d="M 176.75 454.0391418106352 C 179.1668218712681 454.0100344924739 180.6409062528707 454.76908750344484 182.5 457 C 183.875 458.65 185.02003640798145 460.5625 185.04452535106986 461.25 C 185.0690142941583 461.9375 184.3620818390396 463.175 183.47356433969497 464 C 182.0321469069155 465.3383747454836 181.30003564745894 465.2579595347018 176.6790389886251 463.25368831415835 C 173.8305675448813 462.0182168869455 171.1625 461.0057168869455 170.75 461.00368831415835 C 170.3375 461.00165974137127 170 461.675 170 462.5 C 170 463.325 169.55 464.225 169 464.5 C 168.45 464.775 166.9875 464.49376656418303 165.75 463.87503680929564 C 164.5125 463.25630705440824 162.4806304189719 461.79380705440826 161.234734264382 460.62503680929564 C 159.55342650838804 459.0478086664496 159.29563866017133 458.31060656103045 160.234734264382 457.76531277451704 C 160.9306304189719 457.36123480050145 162.625 457.035485770992 164 457.0414260422738 C 165.375 457.04736631355564 168.075 456.38308937980884 170 455.56525507839194 C 171.925 454.7474207769751 174.9625 454.0606698064846 176.75 454.0391418106352 Z " class="even" fill="#ffffff"></path><path d="M 193.75 458.118314788426 L 190.5 458.23662957685195 L 193.5 458.90073573686294 C 195.57034660453314 459.3590457146724 196.4225288837111 460.09709296263003 196.25 461.282420948437 C 196.1125 462.2270894267966 196.7875 463.22978902819926 197.75 463.51064228488724 C 198.7125 463.7914955415752 199.725 463.80286134279055 200 463.5358996209213 C 200.275 463.26893789905205 199.7125 461.9141488708528 198.75 460.5252573360341 C 197.44368022068417 458.6402324183634 196.17602244730082 458.0299965322509 193.75 458.118314788426 Z " class="odd" fill="#000000"></path><path d="M 204.25 465.57316909639474 C 201.87984939279616 465.1551699942869 200.86463855495444 465.4060843351367 200.5 466.5 L 200 468 L 200.5 469 C 200.8018924889474 469.6037849778948 206.84417157605193 469.97215192312115 215.75 469.92971473738965 C 224.92157692188488 469.88601123281296 229.74360365042506 469.53439481605915 228.5 469 C 227.4 468.5273137888714 224.3625 468.1089421570461 221.75 468.07028526261035 C 219.1375 468.03162836817467 214.8625 467.58292609337764 212.25 467.07316909639474 C 209.6375 466.5634120994119 206.0375 465.8884120994119 204.25 465.57316909639474 Z " class="odd" fill="#000000"></path><path d="M 111.69042792648098 491.42420028033507 C 109.38569256691645 491.3825104345193 106.375 491.62779867186293 105 491.9692852522098 C 102.93554490074452 492.4820006792093 102.5 493.19207819295167 102.5 496.04508497187476 L 102.5 499.5 L 108.5 500 C 112.94444444444444 500.3703703703704 114.5 500.8888888888889 114.5 502 C 114.5 503.02222222222224 113.30555555555556 503.5796296296296 110.75 503.75 C 108.6875 503.8875 106.1 503.55 105 503 C 103.9 502.45 102.55 502.225 102 502.5 C 101.45 502.775 101.225 503.675 101.5 504.5 C 101.89716312056737 505.6914893617021 103.59397163120568 505.9485815602837 109.75 505.75 L 117.5 505.5 L 117.77486345797516 502.5 C 117.92603835986151 500.85 117.4760383598615 498.9174635920185 116.77486345797516 498.20547464893014 C 116.03928090780532 497.45854739719766 113.27919372598953 496.92978399862375 110.25 496.95547464893014 C 106.52563411804508 496.98706106767423 105.09511227468245 496.63675378141784 105.3272996036053 495.75 C 105.50731438558822 495.0625 107.41981438558823 494.38051781389515 109.5772996036053 494.23448403087815 C 111.74547683110815 494.08772653741335 114.07765935079635 494.53500086162745 114.79151019748639 495.23448403087815 C 115.82457723756144 496.2467585285421 116.32485040209849 496.2498634177315 117.29151019748639 495.25 C 118.23705198170636 494.2719799721797 118.21505809910163 493.7280200278203 117.19042792648098 492.75 C 116.47016328604552 492.0625 113.99516328604551 491.4658901261508 111.69042792648098 491.42420028033507 Z " class="odd" fill="#000000"></path><path d="M 128.23468722548296 492.39994408494766 C 127.83060925146734 491.79491333166885 126.9375 491.4574133316689 126.25 491.64994408494766 C 125.40238627762403 491.88731384270545 125 494.25336315469457 125 499 L 125 506 L 127 506 C 128.78830002928183 506 128.99837914304157 505.3384375915057 128.98468722548296 499.75 C 128.97626519949856 496.3125 128.63876519949855 493.0049748382265 128.23468722548296 492.39994408494766 Z " class="odd" fill="#000000"></path><path d="M 143 491.419882423212 C 139.975 491.241941194832 137.15 491.4121735107265 136.72222222222223 491.79817645853325 C 136.29444444444445 492.18417940634 135.95694444444445 495.5375 135.97222222222223 499.25 L 136 506 L 140.25 506.11069096058503 C 142.5875 506.1715709889068 145.625 506.12575952531745 147 506.00888770816425 C 148.375 505.8920158910111 150.2875 505.3922049587478 151.25 504.8981967475793 C 152.2125 504.4041885364107 153.27378361344358 502.7625 153.60840802987462 501.25 L 154.21681605974925 498.5 L 153.60840802987462 496.25 C 153.27378361344358 495.0125 151.9875 493.49226768410546 150.75 492.87170596467877 C 149.5125 492.25114424525214 146.025 491.5978236515921 143 491.419882423212 Z " class="odd" fill="#000000"></path><path d="M 176.5 491.300229195971 C 175.95 491.10236504294886 175.15 491.29136904761907 174.72222222222223 491.7202380952381 C 174.29444444444445 492.14910714285713 173.95694444444445 493.5125 173.97222222222223 494.75 L 174 497 L 169 497 L 164 497 L 164 494.5 C 164 492.6666666666667 163.46666666666667 492 162 492 L 160 492 L 160 499 L 160 506 L 162 506 C 163.55555555555554 506 164 505.3333333333333 164 503 L 164 500 L 169 500 L 174 500 L 174 503 C 174 505.3333333333333 174.44444444444446 506 176 506 L 178 506 L 177.75 498.82999110073285 C 177.6125 494.88648620613594 177.05 491.4980933489931 176.5 491.300229195971 Z " class="odd" fill="#000000"></path><path d="M 187.5 491.5 C 186.675 491.225 185.75889601039617 491.5625 185.4642133564359 492.25 C 185.16953070247564 492.9375 185.05703070247566 496.2 185.2142133564359 499.5 L 185.5 505.5 L 193.5 505.5 L 201.5 505.5 L 201.77177346142975 499 C 201.95850089255765 494.53404406763553 201.64557103599833 492.281821049569 200.77177346142975 491.8027864045 C 200.0722980576434 491.41931892697505 199.16939074853266 491.6443189269751 198.76531277451704 492.3027864045 C 198.36123480050145 492.961253882025 198.02373480050144 495.8625 198.01531277451704 498.75 L 198 504 L 193.5 504 L 189 504 L 189 498 C 189 493.55555555555554 188.61111111111111 491.8703703703704 187.5 491.5 Z " class="odd" fill="#000000"></path><path d="M 239.25 491.529849112041 C 238.8375 491.27126612366357 237.78227784034118 491.60876612366354 236.90506186742482 492.279849112041 C 236.02784589450846 492.95093210041847 234.22784589450848 495.03723498477666 232.90506186742482 496.9160777439482 L 230.5 500.3321554878964 L 226.82415526040796 495.9160777439482 C 224.17357914327027 492.73173481633273 222.7092462758046 491.7091904096379 221.57415526040796 492.25 C 220.38032314503405 492.8187965533326 220 494.57042987111754 220 499.5 C 220 504.6111111111111 220.32051282051282 506 221.5 506 C 222.58333333333334 506 223 504.8888888888889 223 502 C 223 499.8 223.3375 498.01142862763135 223.75 498.0253969502919 C 224.1625 498.0393652729524 225.7375 499.5018652729524 227.25 501.2753969502919 L 230 504.5 L 232.75 501.2753969502919 C 234.2625 499.5018652729524 235.8375 498.0393652729524 236.25 498.0253969502919 C 236.6625 498.01142862763135 237 499.8 237 502 C 237 504.8888888888889 237.41666666666666 506 238.5 506 C 239.6904761904762 506 240 504.55555555555554 240 499 C 240 495.15 239.6625 491.78843210041845 239.25 491.529849112041 Z " class="odd" fill="#000000"></path><path d="M 257 491.5860211258898 C 253.975 491.5387095066504 250.4875 491.6125 249.25 491.75 L 247 492 L 247 499 C 247 504.97632327228234 247.2559191819294 506.0090889931824 248.75 506.0621514102588 C 249.7125 506.0963346859011 253.2 506.1621086212135 256.5 506.20831571095306 C 259.8 506.2545228006926 263.0625 506.0015546660761 263.75 505.6461643006943 C 264.5393150777006 505.23814252052637 265 502.78871237296306 265 499 C 265 495.2207887328588 264.5373356806544 492.75424053291994 263.75 492.3360211258898 C 263.0625 491.97083274512914 260.025 491.63333274512917 257 491.5860211258898 Z " class="odd" fill="#000000"></path><path d="M 282.5 491.66499641859787 C 279.2 491.55668761270243 275.4875 491.5877552706516 274.25 491.7340356584849 L 272 492 L 272 499 L 272 506 L 280.75 505.75 L 289.5 505.5 L 289.77155428033666 499.5 C 289.9209091345218 496.2 289.6959091345218 493.13143234205086 289.27155428033666 492.68096076011295 C 288.8471994261515 492.2304891781751 285.8 491.7733052244933 282.5 491.66499641859787 Z " class="odd" fill="#000000"></path><path d="M 307.5 491.6828643811941 C 305.3 491.52221613108077 302.2625 491.52785190662934 300.75 491.6953883268576 C 298.98760355202603 491.89060524713307 297.82043571781344 492.71825712874625 297.5 494 L 297 496 L 297.5 498 C 297.93055555555554 499.72222222222223 298.8333333333333 500 304 500 C 309.1460253909805 500 309.9632340231137 500.24907592763066 309.74168334867613 501.75 C 309.55380582655204 503.0228008900396 308.39489370236254 503.5772828294391 305.49168334867613 503.78341409004236 C 303.2962575069042 503.93929183956567 301.05 503.59429183956564 300.5 503.0167474233757 C 299.95 502.43920300718577 298.9375 501.9741666666667 298.25 501.98333333333335 C 297.5625 501.9925 297 502.9 297 504 C 297 505.7142857142857 297.75 506.0357142857143 302.25 506.25 L 307.5 506.5 L 310.25 506.25 L 313 506 L 313 502 C 313 499.3333333333333 312.5 497.8333333333333 311.5 497.5 C 310.675 497.225 307.975 497 305.5 497 C 302.1666666666667 497 301 496.6111111111111 301 495.5 C 301 494.45238095238096 302.05555555555554 494 304.5 494 C 306.425 494 308.9 494.45 310 495 C 311.44065797400054 495.72032898700024 312.16943633306204 495.65041123375033 312.6058415966842 494.75 C 312.9390544748605 494.0625 312.8265544748605 493.15686422445145 312.3558415966842 492.7374760543365 C 311.8851287185079 492.3180878842216 309.7 491.84351263130753 307.5 491.6828643811941 Z " class="odd" fill="#000000"></path><path d="M 328.5 491.64818288238325 C 325.2 491.5049580233533 321.9375 491.5255248870321 321.25 491.69388702389165 C 320.39820123581984 491.9024843476905 320 494.2299269205911 320 499 L 320 506 L 328 506 C 332.6666666666667 506 336 505.5833333333333 336 505 C 336 504.45 333.4168732373638 503.8875 330.2597183052528 503.75 C 325.67345502408034 503.5502596594968 324.4672231961573 503.14818238352245 324.2597183052528 501.75 C 324.0544958035001 500.3671965132852 324.73439302657033 500 327.5 500 C 329.8077395802376 500 330.8886048222447 499.5741927072277 330.6729882870545 498.75 C 330.49313184493457 498.0625 328.9181318449346 497.3875 327.1729882870545 497.25 C 325.21261298828483 497.095541873983 324.1254156177026 496.52229063008514 324.3281692426426 495.75 C 324.51948855141933 495.02126279707045 326.7087922991153 494.3707287532599 329.5781692426426 494.19000462082994 C 332.2851761591892 494.0195071622864 334.95 493.4495071622864 335.5 492.92333795416323 L 336.5 491.96666666666664 L 335.5 491.9376291918249 C 334.95 491.9216585806619 331.8 491.7914077414132 328.5 491.64818288238325 Z " class="odd" fill="#000000"></path><path d="M 392.1927164560696 491.73333333333335 L 391.5 490.96666666666664 L 390.72222222222223 491.73333333333335 C 390.2944444444445 492.155 389.95694444444445 495.5375 389.97222222222223 499.25 L 390 506 L 397 506 C 401 506 404 505.57142857142856 404 505 C 404 504.45 401.6375 503.8875 398.75 503.75 L 393.5 503.5 L 393.1927164560696 498 C 393.0237105069079 494.975 392.5737105069079 492.155 392.1927164560696 491.73333333333335 Z " class="odd" fill="#000000"></path><path d="M 341.6614737468278 492.25 C 340.7476631860725 492.1125 339.99544512682644 492.3375 339.9898780596144 492.75 C 339.9843109924023 493.1625 340.9968109924023 496.32077454420715 342.2398780596144 499.7683878760158 C 343.8494066576454 504.2323724822079 345.00375085024234 506.03148266164476 346.25 506.0183878760158 C 347.3857594510882 506.0064540451756 348.35099459937817 504.7715189021763 349 502.5 C 349.55 500.575 350.45 498.775 351 498.5 C 351.55 498.225 352.7875 499.8298251282486 353.75 502.0662780627747 C 354.7745493827528 504.4469081652416 356.0678873582358 506.0014452021999 356.8699111328677 505.8162780627747 C 357.6233622559449 505.6423251282486 359.02682291345474 503.475 359.9887125940006 501 C 360.9506022745465 498.525 362.02164226475605 495.4875 362.36880146113293 494.25 C 362.7796145872679 492.7855962080288 362.5635576622062 491.98969634726444 361.75 491.9704896505125 C 361.0625 491.9542589582944 359.6675560991236 493.8667589582944 358.65012466471916 496.2204896505125 L 356.8002493294383 500.5 L 354.90012466471916 496.25 C 353.8550560991236 493.9125 352.325 492 351.5 492 C 350.64158296943566 492 349.3466155694389 493.8178184134011 348.4724085698476 496.25 C 347.63223328326376 498.5875 346.6197332832637 500.1302037217106 346.2224085698476 499.6782304926902 C 345.82508385643143 499.2262572636699 345.01016318607253 497.42625726366987 344.4114737468278 495.6782304926902 C 343.81278430758306 493.9302037217106 342.5752843075831 492.3875 341.6614737468278 492.25 Z " class="odd" fill="#000000"></path><path d="M 375.25 491.95547464893014 C 374.2875 491.9309857058417 373.0088717442051 492.4934857058417 372.4086038760114 493.20547464893014 C 371.8083360078176 493.9174635920185 369.89583600781765 497.0875 368.1586038760114 500.25 L 365 506 L 367 506 C 368.1 506 369.225 505.325 369.5 504.5 C 369.84567901234567 503.462962962963 371.3888888888889 503 374.5 503 C 377.6111111111111 503 379.15432098765433 503.462962962963 379.5 504.5 C 379.775 505.325 380.9 506 382 506 C 383.1 506 384 505.775 384 505.5 C 384 505.225 382.425 502.075 380.5 498.5 C 378.2863294608609 494.3888975701702 376.35683526956956 491.9836359226182 375.25 491.95547464893014 Z " class="odd" fill="#000000"></path><path d="M 416.25 491.95547464893014 C 415.2875 491.9309857058417 414.0088717442051 492.4934857058417 413.4086038760114 493.20547464893014 C 412.8083360078176 493.9174635920185 410.89583600781765 497.0875 409.1586038760114 500.25 L 406 506 L 408 506 C 409.1 506 410.225 505.325 410.5 504.5 C 410.84567901234567 503.462962962963 412.3888888888889 503 415.5 503 C 418.6111111111111 503 420.15432098765433 503.462962962963 420.5 504.5 C 420.775 505.325 421.9 506 423 506 C 424.1 506 425 505.775 425 505.5 C 425 505.225 423.425 502.075 421.5 498.5 C 419.2863294608609 494.3888975701702 417.35683526956956 491.9836359226182 416.25 491.95547464893014 Z " class="odd" fill="#000000"></path><path d="M 142.5 494 C 143.875 494 146.125 494.45 147.5 495 C 149.38888888888889 495.75555555555553 150 496.73333333333335 150 499 C 150 501.35020129981984 149.40435119150152 502.2286034363583 147.25 503.0554196382431 C 145.7375 503.63590043927684 143.375 503.9734004392768 142 503.8054196382431 C 139.93788674142965 503.55349568406353 139.4476525119711 502.8869585619985 139.20113568717574 500 C 139.03676031512242 498.075 139.1492603151224 495.9375 139.45113568717574 495.25 C 139.7530110592291 494.5625 141.125 494 142.5 494 Z " class="even" fill="#ffffff"></path><path d="M 255.75 494.25 L 260.5 494.5 L 260.75 499.25 L 261 504 L 255.75 503.75 L 250.5 503.5 L 250.20113568717574 500 C 250.03676031512242 498.075 250.1492603151224 495.9375 250.45113568717574 495.25 C 250.80354369634708 494.44741546103177 252.70017875192073 494.08948309220636 255.75 494.25 Z " class="even" fill="#ffffff"></path><path d="M 280.75 494.25 L 285.5 494.5 L 285.75 499.25 L 286 504 L 280.75 503.75 L 275.5 503.5 L 275.20113568717574 500 C 275.03676031512236 498.075 275.1492603151224 495.9375 275.45113568717574 495.25 C 275.80354369634705 494.44741546103177 277.70017875192076 494.08948309220636 280.75 494.25 Z " class="even" fill="#ffffff"></path><path d="M 375.766983236339 496.67282454391915 C 376.4638240163255 497.67777104476363 377.0263240163255 498.8375 377.016983236339 499.25 C 377.0076424563525 499.6625 375.875 500 374.5 500 L 372 500 L 373.25 497.42282454391915 L 374.5 494.8456490878383 L 375.766983236339 496.67282454391915 Z " class="even" fill="#ffffff"></path><path d="M 416.766983236339 496.67282454391915 C 417.4638240163255 497.67777104476363 418.0263240163255 498.8375 418.016983236339 499.25 C 418.0076424563525 499.6625 416.875 500 415.5 500 L 413 500 L 414.25 497.42282454391915 L 415.5 494.8456490878383 L 416.766983236339 496.67282454391915 Z " class="even" fill="#ffffff"></path></g></svg>